# xmcd CD database file
# Copyright (C) 1993-1998 Ti Kan
# 
# Track frame offsets:
#     150
#     27927
#     59105
#     88995
#     104705
#     118630
#     138172
#     167257
#     185365
#     207792
#     240700
#     244310
#     267862
# 
# Disc length: 3933 seconds
# 
# Revision: 1
# Processed by: cddbd v1.4b41PL1 Copyright (c) Steve Scherf et al.
# Submitted via: DiscPlay 4.0.4
# 
DISCID=ba0f5b0d
DTITLE=Stevie Ray Vaughan And Double Trouble - Unsurpassed Masters - Volume 
DTITLE=III
DYEAR=1900
DGENRE=
TTITLE0=Life Without You (Instrumental)
TTITLE1=Take 2
TTITLE2=Intros Outros
TTITLE3=Say What!
TTITLE4=Boothill (Low Down Mix)
TTITLE5=Say What!
TTITLE6=Shake For Me
TTITLE7=Collins Shuffle
TTITLE8=Come On
TTITLE9=Come On Intro.
TTITLE10=Give Me Back My Wig
TTITLE11=Little Wing - Life Without You
TTITLE12=(Cont.)
EXTD=
EXTT0=
EXTT1=
EXTT2=
EXTT3=
EXTT4=
EXTT5=
EXTT6=
EXTT7=
EXTT8=
EXTT9=
EXTT10=
EXTT11=
EXTT12=
PLAYORDER=
